<svg width="40" height="24" viewBox="0 0 40 24" fill="none" xmlns="http://www.w3.org/2000/svg">
<rect x="0.5" y="0.5" width="39" height="23" rx="5.5" fill="white" stroke="#D5D8FF"/>
<path fill-rule="evenodd" clip-rule="evenodd" d="M11.5222 8.01604C11.2 8.41326 10.6846 8.72656 10.1692 8.6818C10.1048 8.14471 10.3571 7.57406 10.6524 7.22159C10.9745 6.81318 11.5383 6.52226 11.9947 6.49988C12.0483 7.05935 11.839 7.60763 11.5222 8.01604ZM11.9892 8.78794C11.5351 8.76071 11.1208 8.93024 10.7861 9.06718C10.5708 9.1553 10.3884 9.22992 10.2497 9.22992C10.094 9.22992 9.90405 9.15131 9.69083 9.06304C9.41145 8.94739 9.09203 8.81516 8.75708 8.82151C7.98931 8.8327 7.27523 9.28587 6.8833 10.0076C6.07795 11.451 6.67391 13.5882 7.45241 14.7631C7.83361 15.3449 8.28997 15.9827 8.8913 15.9603C9.15585 15.9499 9.34615 15.8658 9.54309 15.7787C9.76983 15.6784 10.0054 15.5743 10.3731 15.5743C10.7282 15.5743 10.9534 15.6757 11.1696 15.7731C11.3752 15.8657 11.5726 15.9546 11.8657 15.9491C12.4885 15.9379 12.8805 15.3673 13.2617 14.7854C13.673 14.161 13.8538 13.5515 13.8812 13.459L13.8845 13.4483C13.8838 13.4476 13.8787 13.4452 13.8698 13.4409L13.8698 13.4409C13.7322 13.3753 12.6812 12.8739 12.6711 11.5293C12.661 10.4008 13.5048 9.82896 13.6376 9.73895C13.6457 9.73347 13.6511 9.72977 13.6536 9.72785C13.1167 8.89984 12.2791 8.81032 11.9892 8.78794ZM16.3004 15.8878V7.16565H19.4413C21.0627 7.16565 22.1956 8.32934 22.1956 10.0301C22.1956 11.7309 21.0412 12.9058 19.3983 12.9058H17.5997V15.8878H16.3004ZM17.5997 8.30713H19.0977C20.2252 8.30713 20.8694 8.93373 20.8694 10.0359C20.8694 11.138 20.2252 11.7702 19.0923 11.7702H17.5997V8.30713ZM26.4856 14.8414C26.142 15.5239 25.385 15.9547 24.5689 15.9547C23.3609 15.9547 22.5179 15.205 22.5179 14.0749C22.5179 12.956 23.334 12.3126 24.8427 12.2175L26.4642 12.1168V11.6356C26.4642 10.9251 26.0185 10.5391 25.2239 10.5391C24.5689 10.5391 24.0911 10.8915 23.9944 11.4286H22.824C22.8616 10.2985 23.8817 9.47607 25.2615 9.47607C26.7487 9.47607 27.7151 10.2873 27.7151 11.5461V15.8876H26.5125V14.8414H26.4856ZM24.9175 14.9197C24.2249 14.9197 23.7847 14.5728 23.7847 14.0413C23.7847 13.493 24.2088 13.1741 25.0195 13.1238L26.4638 13.0287V13.521C26.4638 14.3378 25.798 14.9197 24.9175 14.9197ZM31.7043 16.2288C31.1835 17.7561 30.5876 18.2597 29.3205 18.2597C29.2239 18.2597 28.9017 18.2485 28.8265 18.2261V17.1799C28.9071 17.1911 29.1057 17.2023 29.2077 17.2023C29.7822 17.2023 30.1044 16.9505 30.303 16.2959L30.4211 15.9099L28.2198 9.55994H29.5782L31.1084 14.7126H31.1352L32.6654 9.55994H33.9862L31.7043 16.2288Z" fill="black"/>
</svg>
