<svg width="40" height="24" viewBox="0 0 40 24" fill="none" xmlns="http://www.w3.org/2000/svg">
<rect x="0.5" y="0.5" width="39" height="23" rx="5.5" fill="white" stroke="#D5D8FF"/>
<path d="M19.1953 12.7851V16.2323H18.0963V7.7192H21.0111C21.359 7.71197 21.7049 7.77337 22.0289 7.89986C22.3528 8.02636 22.6484 8.21544 22.8985 8.4562C23.1512 8.68233 23.3522 8.95967 23.4882 9.26956C23.6242 9.57945 23.692 9.91472 23.6869 10.2528C23.6942 10.5928 23.6275 10.9302 23.4914 11.2421C23.3553 11.5539 23.153 11.8328 22.8985 12.0597C22.3888 12.5433 21.7597 12.7849 21.0111 12.7844H19.1953V12.7851ZM19.1953 8.7673V11.7391H21.0384C21.2404 11.745 21.4415 11.7089 21.6288 11.6331C21.816 11.5574 21.9853 11.4435 22.1258 11.2989C22.2656 11.1637 22.3767 11.0019 22.4525 10.8233C22.5284 10.6446 22.5675 10.4526 22.5675 10.2586C22.5675 10.0646 22.5284 9.87263 22.4525 9.69395C22.3767 9.51527 22.2656 9.35354 22.1258 9.21832C21.9871 9.07066 21.8184 8.95402 21.6309 8.87615C21.4434 8.79827 21.2415 8.76094 21.0384 8.76662H19.1953V8.7673Z" fill="#5F6368"/>
<path d="M26.2198 10.2177C27.0321 10.2177 27.6733 10.4337 28.1434 10.8657C28.6135 11.2977 28.8483 11.89 28.8479 12.6426V16.2325H27.7966V15.4242H27.7488C27.2938 16.0898 26.6885 16.4227 25.9331 16.4227C25.2882 16.4227 24.7487 16.2325 24.3146 15.8521C24.1063 15.6775 23.9397 15.4589 23.827 15.2121C23.7144 14.9653 23.6585 14.6967 23.6634 14.4257C23.6634 13.8229 23.8923 13.3436 24.3501 12.9877C24.8079 12.6317 25.4191 12.4533 26.1836 12.4524C26.8362 12.4524 27.3736 12.5713 27.7959 12.809V12.5591C27.7972 12.3743 27.7571 12.1916 27.6786 12.0242C27.6001 11.8568 27.4851 11.7088 27.342 11.5911C27.0514 11.3302 26.6726 11.1878 26.2812 11.1924C25.6673 11.1924 25.1815 11.4501 24.8238 11.9654L23.8559 11.3588C24.3883 10.598 25.1763 10.2177 26.2198 10.2177ZM24.7979 14.4494C24.7972 14.5886 24.8299 14.726 24.8933 14.85C24.9567 14.9741 25.0489 15.0813 25.1624 15.1627C25.4055 15.3529 25.7072 15.4537 26.0164 15.4479C26.4801 15.4472 26.9247 15.2635 27.2526 14.9371C27.6166 14.5961 27.7987 14.1961 27.7987 13.7369C27.456 13.4652 26.9782 13.3293 26.3652 13.3293C25.9187 13.3293 25.5465 13.4364 25.2484 13.6506C24.9474 13.868 24.7979 14.1322 24.7979 14.4494Z" fill="#5F6368"/>
<path d="M34.8821 10.4077L31.2123 18.8H30.0778L31.4397 15.8635L29.0266 10.4077H30.2212L31.9653 14.5919H31.9892L33.6855 10.4077H34.8821Z" fill="#5F6368"/>
<path d="M14.7545 12.0423C14.7549 11.709 14.7266 11.3763 14.6699 11.0479H10.0349V12.9314H12.6896C12.6353 13.2323 12.5203 13.519 12.3516 13.7745C12.1829 14.0299 11.964 14.2487 11.708 14.4177V15.6403H13.2924C14.22 14.7892 14.7545 13.5305 14.7545 12.0423Z" fill="#4285F4"/>
<path d="M10.0349 16.8215C11.3613 16.8215 12.478 16.3881 13.2924 15.6409L11.708 14.4182C11.2671 14.7158 10.6991 14.8856 10.0349 14.8856C8.75299 14.8856 7.6649 14.0256 7.27581 12.8668H5.64368V14.1268C6.05275 14.9368 6.68001 15.6178 7.45544 16.0936C8.23086 16.5694 9.12393 16.8214 10.0349 16.8215Z" fill="#34A853"/>
<path d="M7.27584 12.8667C7.07014 12.2595 7.07014 11.6019 7.27584 10.9946V9.73462H5.6437C5.29958 10.416 5.12036 11.1681 5.12036 11.9307C5.12036 12.6933 5.29958 13.4453 5.6437 14.1267L7.27584 12.8667Z" fill="#FBBC04"/>
<path d="M10.0349 8.97588C10.7358 8.96449 11.4131 9.228 11.9203 9.70948L13.3231 8.3136C12.4336 7.48224 11.2552 7.02581 10.0349 7.03999C9.12393 7.04004 8.23086 7.29204 7.45544 7.76786C6.68001 8.24369 6.05275 8.92461 5.64368 9.73461L7.27581 10.9946C7.6649 9.83582 8.75299 8.97588 10.0349 8.97588Z" fill="#EA4335"/>
</svg>
