<svg width="40" height="24" viewBox="0 0 40 24" fill="none" xmlns="http://www.w3.org/2000/svg">
<rect x="0.5" y="0.5" width="39" height="23" rx="5.5" fill="white" stroke="#D5D8FF"/>
<path fill-rule="evenodd" clip-rule="evenodd" d="M23.0184 10.6837H24.3935C24.8295 10.6675 25.0947 10.6329 25.1902 10.5788C25.3205 10.5049 25.408 10.3569 25.4516 10.135C25.4794 9.98723 25.4933 9.76761 25.4933 9.47582C25.4933 9.11841 25.4657 8.85348 25.4101 8.68041C25.3308 8.43803 25.1408 8.29039 24.8398 8.23677C24.7803 8.22867 24.6378 8.22437 24.4121 8.22437H23.0184V10.6837ZM20.8123 14.8262V6.375H24.9218C25.4854 6.375 25.9156 6.42247 26.2111 6.51731C26.887 6.73569 27.3405 7.18282 27.5728 7.85858C27.6927 8.21322 27.7526 8.74719 27.7526 9.46017C27.7526 10.3174 27.6861 10.9335 27.5546 11.3085C27.291 12.0502 26.7484 12.4775 25.9291 12.5882C25.8327 12.6048 25.4228 12.6197 24.6993 12.6316L24.3331 12.6442H23.018V14.8262H20.8123ZM9.73638 9.07084H11.7884C11.8016 8.88414 11.8083 8.7445 11.8083 8.65109C11.8083 7.51232 11.3619 6.81933 10.4689 6.57193C10.103 6.47074 9.4892 6.41968 8.62794 6.41968C8.08088 6.41968 7.58354 6.44029 7.13521 6.48058C6.5964 6.52528 6.15374 6.67487 5.80783 6.92965C5.57168 7.09564 5.40056 7.33833 5.29437 7.65801C5.18828 7.97759 5.13519 8.40246 5.13519 8.93233C5.13519 9.62808 5.23342 10.1482 5.4298 10.492C5.65321 10.8966 6.10094 11.163 6.77279 11.2926C7.02792 11.3376 7.48351 11.3841 8.13935 11.4324C8.95606 11.4891 9.41363 11.5338 9.51197 11.5659C9.77496 11.6471 9.9067 11.8734 9.9067 12.2455C9.9067 12.4116 9.89109 12.5474 9.85967 12.6522C9.80051 12.8226 9.67672 12.9458 9.4881 13.0223C9.38211 13.0631 9.13642 13.0834 8.75143 13.0834H7.99706C7.79621 13.0789 7.6254 13.0408 7.48391 12.9683C7.27978 12.8632 7.17747 12.6272 7.17747 12.2603L7.17727 12.0845H5.12524C5.12524 12.7722 5.17406 13.2634 5.2727 13.5584C5.44978 14.0883 5.81568 14.4401 6.3707 14.6138C6.8229 14.7556 7.6238 14.8261 8.77301 14.8261C9.46146 14.8261 9.97332 14.7936 10.3079 14.7286C11.1065 14.575 11.6198 14.209 11.8483 13.6296C11.9743 13.3139 12.0373 12.8156 12.0373 12.1352C12.0373 11.84 12.0236 11.5744 11.9959 11.3396C11.9487 10.9471 11.8006 10.6293 11.5524 10.3861C11.2369 10.0744 10.7284 9.88204 10.027 9.80915C9.80608 9.78485 9.25216 9.74209 8.36525 9.6814L7.95142 9.65125C7.76977 9.63916 7.6241 9.59866 7.51384 9.52976C7.35992 9.43266 7.28316 9.23007 7.28316 8.92238C7.28316 8.5825 7.36986 8.36176 7.54307 8.26026C7.71637 8.15906 8.07153 8.10852 8.60726 8.10852C9.15889 8.10852 9.49596 8.19638 9.61806 8.37191C9.69681 8.49054 9.73638 8.72358 9.73638 9.07084ZM5.1333 16.5021L5.44094 16.4701C5.45943 16.577 5.49701 16.6555 5.55359 16.7057C5.61026 16.7558 5.68663 16.7808 5.78277 16.7808C5.88459 16.7808 5.96125 16.7586 6.01295 16.7141C6.06456 16.6695 6.09031 16.6174 6.09031 16.5577C6.09031 16.5195 6.07947 16.487 6.05789 16.46C6.03622 16.4332 5.99844 16.4099 5.94445 16.3899C5.90746 16.3769 5.82334 16.3535 5.69199 16.3199C5.52287 16.2768 5.40435 16.2237 5.33614 16.1607C5.24029 16.0721 5.19236 15.964 5.19236 15.8365C5.19236 15.7545 5.21493 15.6778 5.26017 15.6064C5.30531 15.5349 5.37054 15.4805 5.45555 15.4432C5.54066 15.4058 5.64337 15.3871 5.76368 15.3871C5.96016 15.3871 6.10801 15.4317 6.20734 15.5207C6.30667 15.6098 6.35877 15.7286 6.36374 15.8773L6.04686 15.8901C6.03334 15.807 6.0043 15.7474 5.95976 15.7109C5.91531 15.6745 5.8486 15.6562 5.75961 15.6562C5.66773 15.6562 5.59595 15.6757 5.54394 15.7147C5.51044 15.7396 5.49373 15.773 5.49373 15.8148C5.49373 15.8531 5.50944 15.8857 5.54076 15.913C5.58053 15.9474 5.67728 15.9834 5.831 16.0206C5.98462 16.0579 6.09826 16.0966 6.17194 16.1368C6.24552 16.1769 6.30319 16.2317 6.34485 16.3012C6.38641 16.3709 6.40729 16.4569 6.40729 16.5592C6.40729 16.6521 6.38233 16.7389 6.33242 16.8199C6.28251 16.9009 6.21201 16.9611 6.12083 17.0005C6.02966 17.0398 5.91601 17.0596 5.77989 17.0596C5.58183 17.0596 5.4297 17.0122 5.32351 16.9172C5.21742 16.8223 5.15398 16.684 5.1333 16.5021ZM6.73584 15.8613H7.03721V17.0308H6.73584V15.8613ZM6.73596 15.416H7.03733V15.7012H6.73596V15.416ZM8.14223 17.031H8.4436V16.3028C8.4436 16.2123 8.43803 16.1428 8.42699 16.0943C8.41596 16.0457 8.39637 16.0023 8.36823 15.9641C8.34009 15.9259 8.29863 15.8944 8.24385 15.8698C8.18906 15.8452 8.12851 15.8328 8.06229 15.8328C7.91215 15.8328 7.78746 15.8996 7.68853 16.0334V15.8616H7.40894V17.031H7.71031V16.5002C7.71031 16.3692 7.71786 16.2795 7.73318 16.231C7.74839 16.1824 7.77653 16.1434 7.81769 16.114C7.85885 16.0846 7.90529 16.0698 7.95709 16.0698C7.99746 16.0698 8.03206 16.0802 8.0608 16.1007C8.08953 16.1213 8.11021 16.1503 8.12304 16.1874C8.13577 16.2245 8.14223 16.3063 8.14223 16.4329V17.031ZM9.0531 16.4207C9.0531 16.5452 9.07617 16.6363 9.1225 16.6941C9.16874 16.752 9.22581 16.7808 9.29372 16.7808C9.3664 16.7808 9.42785 16.7512 9.47806 16.6919C9.52817 16.6326 9.55333 16.5448 9.55333 16.4284C9.55333 16.307 9.52927 16.2168 9.48124 16.1578C9.43312 16.099 9.37247 16.0695 9.29899 16.0695C9.2276 16.0695 9.16874 16.0985 9.1225 16.1562C9.07617 16.2141 9.0531 16.3022 9.0531 16.4207ZM8.78277 17.1077L9.12451 17.1461C9.13027 17.1897 9.1435 17.2196 9.16418 17.236C9.19282 17.2594 9.23786 17.2711 9.2993 17.2711C9.37795 17.2711 9.43691 17.259 9.47629 17.2348C9.50264 17.2186 9.52272 17.1926 9.53634 17.1566C9.54559 17.1307 9.55026 17.0835 9.55026 17.0144L9.55116 16.8436C9.46227 16.9684 9.34952 17.0308 9.2127 17.0308C9.06008 17.0308 8.93937 16.9643 8.85028 16.8311C8.78038 16.7259 8.74548 16.5949 8.74548 16.4383C8.74548 16.2418 8.79122 16.0918 8.8828 15.9881C8.97437 15.8844 9.08832 15.8325 9.22443 15.8325C9.36483 15.8325 9.48066 15.8962 9.57194 16.0233V15.8613H9.85163V16.9125C9.85163 17.0509 9.8406 17.1542 9.81842 17.2225C9.79635 17.291 9.76533 17.3446 9.72536 17.3836C9.68539 17.4225 9.63209 17.4531 9.56538 17.4751C9.49866 17.4972 9.41434 17.5082 9.31243 17.5082C9.11983 17.5082 8.98322 17.474 8.90258 17.4056C8.82194 17.3372 8.78168 17.2505 8.78168 17.1454C8.78168 17.135 8.78207 17.1225 8.78277 17.1077ZM10.514 15.416H10.2126V17.0308H10.514V15.416ZM11.5635 16.3482C11.5614 16.2572 11.5388 16.1881 11.4958 16.1406C11.4528 16.0932 11.4005 16.0695 11.3389 16.0695C11.273 16.0695 11.2185 16.0946 11.1755 16.1445C11.1325 16.1944 11.1114 16.2624 11.1121 16.3482H11.5635ZM11.5478 16.6624L11.846 16.7136C11.8075 16.8263 11.7465 16.9122 11.6633 16.9712C11.5801 17.0302 11.4759 17.0597 11.3509 17.0597C11.1529 17.0597 11.0065 16.9929 10.9115 16.8595C10.8364 16.7527 10.799 16.6179 10.799 16.4549C10.799 16.2605 10.8482 16.108 10.9468 15.9978C11.0453 15.8876 11.1699 15.8325 11.3206 15.8325C11.4899 15.8325 11.6234 15.8903 11.7213 16.0059C11.8191 16.1216 11.8658 16.2987 11.8616 16.5374H11.1066C11.1087 16.6295 11.1331 16.701 11.1799 16.7523C11.2266 16.8034 11.2849 16.829 11.3547 16.829C11.4021 16.829 11.4421 16.8159 11.4744 16.7895C11.5067 16.7633 11.5312 16.7208 11.5478 16.6624ZM12.8475 15.416V17.0308H14.0376V16.7585H13.1645V16.3196H13.9475V16.0473H13.1645V15.6884H14.0066V15.416H12.8475ZM15.1151 17.0308V16.8556C15.0736 16.9181 15.0192 16.9677 14.9517 17.0045C14.8842 17.0412 14.813 17.0597 14.738 17.0597C14.6616 17.0597 14.5931 17.0423 14.5324 17.0078C14.4717 16.9732 14.4278 16.9246 14.4007 16.8622C14.3735 16.7997 14.36 16.7132 14.36 16.6029V15.8613H14.6614V16.3992C14.6614 16.5639 14.6668 16.6647 14.678 16.7018C14.689 16.7391 14.7091 16.7684 14.7383 16.7901C14.7675 16.8118 14.8045 16.8225 14.8495 16.8225C14.9008 16.8225 14.9468 16.8082 14.9874 16.7791C15.028 16.75 15.0558 16.7141 15.0708 16.671C15.0857 16.628 15.0933 16.5227 15.0933 16.3552V15.8613H15.3946V17.0308H15.1151ZM15.7556 17.031H16.057V16.6694C16.057 16.4703 16.0654 16.3394 16.0822 16.2769C16.099 16.2145 16.1221 16.1713 16.1514 16.1473C16.1808 16.1235 16.2165 16.1115 16.2587 16.1115C16.3023 16.1115 16.3496 16.1285 16.4003 16.1622L16.492 15.8914C16.4286 15.8523 16.3625 15.8328 16.2941 15.8328C16.2456 15.8328 16.2024 15.8457 16.1642 15.8714C16.126 15.8973 16.083 15.9493 16.0352 16.0279V15.8616H15.7556V17.031ZM16.9211 16.446C16.9211 16.5625 16.9479 16.6516 17.0015 16.7136C17.0551 16.7755 17.1211 16.8064 17.1997 16.8064C17.2783 16.8064 17.3442 16.7755 17.3974 16.7136C17.4506 16.6516 17.4773 16.5617 17.4773 16.4438C17.4773 16.3289 17.4506 16.2403 17.3974 16.1785C17.3442 16.1165 17.2783 16.0856 17.1997 16.0856C17.1211 16.0856 17.0551 16.1165 17.0015 16.1785C16.9479 16.2403 16.9211 16.3296 16.9211 16.446ZM16.6132 16.4294C16.6132 16.3263 16.6377 16.2264 16.6869 16.1299C16.7361 16.0334 16.8057 15.9597 16.8958 15.9088C16.9859 15.8579 17.0866 15.8325 17.1978 15.8325C17.3695 15.8325 17.5102 15.8901 17.62 16.0055C17.7297 16.1208 17.7845 16.2666 17.7845 16.4428C17.7845 16.6203 17.7291 16.7677 17.6183 16.8845C17.5075 17.0012 17.368 17.0597 17.1999 17.0597C17.0959 17.0597 16.9967 17.0353 16.9023 16.9868C16.8078 16.9381 16.7361 16.8668 16.6869 16.7728C16.6377 16.6788 16.6132 16.5645 16.6132 16.4294ZM19.083 16.1495V15.6881H19.2353C19.3491 15.6881 19.4247 15.6918 19.4623 15.6992C19.5134 15.7088 19.5557 15.7328 19.5891 15.7713C19.6225 15.8097 19.6392 15.8585 19.6392 15.9177C19.6392 15.9658 19.6273 16.0079 19.6035 16.0441C19.5798 16.0804 19.5468 16.107 19.505 16.1241C19.463 16.1411 19.3799 16.1495 19.2556 16.1495H19.083ZM18.7662 15.416V17.0308H19.0831V16.4221H19.2891C19.432 16.4221 19.5412 16.4144 19.6167 16.3989C19.6721 16.3864 19.7267 16.361 19.7804 16.3224C19.8341 16.2838 19.8785 16.2307 19.9133 16.1632C19.9482 16.0955 19.9656 16.0122 19.9656 15.9131C19.9656 15.7845 19.9353 15.6796 19.8748 15.5985C19.8142 15.5173 19.7392 15.4645 19.6495 15.4403C19.5911 15.4242 19.4657 15.416 19.2735 15.416H18.7662ZM20.9124 16.4701C20.8739 16.4834 20.8132 16.4992 20.7301 16.5177C20.647 16.536 20.5926 16.5542 20.5671 16.5718C20.5279 16.6006 20.5085 16.6371 20.5085 16.6813C20.5085 16.7249 20.5241 16.7624 20.5553 16.7942C20.5866 16.8259 20.6264 16.8418 20.6748 16.8418C20.7288 16.8418 20.7802 16.8233 20.8293 16.7865C20.8655 16.7584 20.8894 16.7242 20.9007 16.6836C20.9085 16.657 20.9124 16.6065 20.9124 16.5319V16.4701ZM20.5086 16.217L20.2383 16.1657C20.2689 16.0524 20.3216 15.9687 20.3964 15.9142C20.4712 15.8598 20.5824 15.8325 20.7299 15.8325C20.8638 15.8325 20.9636 15.8489 21.0291 15.8815C21.0947 15.9144 21.1409 15.956 21.1675 16.0063C21.1943 16.0566 21.2077 16.1492 21.2077 16.2838L21.2046 16.6458C21.2046 16.7487 21.2094 16.8248 21.219 16.8736C21.2286 16.9225 21.2466 16.9749 21.2729 17.0308H20.9747C20.9667 17.0106 20.9572 16.9805 20.9457 16.9407C20.9407 16.9226 20.9372 16.9107 20.9352 16.9049C20.8839 16.9564 20.8291 16.9952 20.7707 17.021C20.7124 17.0468 20.6502 17.0597 20.584 17.0597C20.4673 17.0597 20.3752 17.0269 20.308 16.9615C20.2408 16.8959 20.2072 16.8131 20.2072 16.713C20.2072 16.6469 20.2225 16.5878 20.253 16.536C20.2837 16.4841 20.3267 16.4443 20.3819 16.4167C20.4371 16.3892 20.5168 16.3649 20.6208 16.3443C20.7611 16.3172 20.8583 16.2918 20.9125 16.2683V16.237C20.9125 16.1767 20.8982 16.1337 20.8696 16.108C20.8408 16.0824 20.7868 16.0696 20.7073 16.0696C20.6536 16.0696 20.6117 16.0805 20.5816 16.1023C20.5515 16.1241 20.5271 16.1624 20.5086 16.217ZM21.7438 15.8613H21.4238L21.8562 17.034C21.8384 17.1001 21.8126 17.1545 21.7789 17.1974C21.7452 17.24 21.6934 17.2614 21.6231 17.2614C21.5852 17.2614 21.5424 17.2567 21.4952 17.247L21.5233 17.4895C21.5788 17.502 21.6357 17.5082 21.6935 17.5082C21.7506 17.5082 21.8018 17.502 21.8471 17.4894C21.8924 17.477 21.9304 17.4593 21.9615 17.4369C21.9926 17.4145 22.0201 17.3852 22.044 17.3492C22.0678 17.3131 22.093 17.2609 22.1194 17.1924L22.5921 15.8613H22.2814L22.0157 16.6916L21.7438 15.8613ZM22.8271 15.8616H23.1037V16.0213C23.203 15.8956 23.3212 15.8328 23.4584 15.8328C23.5312 15.8328 23.5944 15.8481 23.648 15.879C23.7016 15.91 23.7456 15.9567 23.7798 16.0192C23.8297 15.9567 23.8837 15.91 23.9414 15.879C23.9992 15.8481 24.0608 15.8328 24.1264 15.8328C24.2099 15.8328 24.2805 15.8502 24.3383 15.8853C24.396 15.92 24.4393 15.9714 24.4678 16.0392C24.4884 16.0891 24.4988 16.17 24.4988 16.2818V17.031H24.1974V16.3612C24.1974 16.2449 24.187 16.17 24.1665 16.1361C24.1386 16.0919 24.096 16.0698 24.0384 16.0698C23.9963 16.0698 23.9568 16.083 23.9198 16.1096C23.8828 16.1361 23.8561 16.1749 23.8398 16.2261C23.8234 16.2771 23.8152 16.3579 23.8152 16.4682V17.031H23.5138V16.3889C23.5138 16.2747 23.5085 16.2012 23.4978 16.168C23.4872 16.1349 23.4707 16.1103 23.4482 16.0941C23.4257 16.078 23.3954 16.0698 23.3569 16.0698C23.3107 16.0698 23.269 16.0827 23.232 16.1085C23.195 16.1342 23.1686 16.1714 23.1525 16.2199C23.1365 16.2685 23.1285 16.349 23.1285 16.4616V17.031H22.8271V15.8616ZM25.4691 16.1406C25.5122 16.1881 25.5347 16.2572 25.5369 16.3482H25.0855C25.0848 16.2624 25.1058 16.1944 25.1489 16.1445C25.1918 16.0946 25.2463 16.0695 25.3122 16.0695C25.3738 16.0695 25.4262 16.0932 25.4691 16.1406ZM25.8195 16.7136L25.5212 16.6624C25.5047 16.7208 25.4803 16.7633 25.4478 16.7895C25.4154 16.8159 25.3756 16.829 25.3281 16.829C25.2582 16.829 25.2 16.8034 25.1534 16.7523C25.1066 16.701 25.0822 16.6295 25.08 16.5374H25.835C25.8393 16.2987 25.7925 16.1216 25.6946 16.0059C25.5968 15.8903 25.4634 15.8325 25.294 15.8325C25.1433 15.8325 25.0188 15.8876 24.9202 15.9978C24.8218 16.108 24.7723 16.2605 24.7723 16.4549C24.7723 16.6179 24.8098 16.7527 24.8849 16.8595C24.9799 16.9929 25.1264 17.0597 25.3243 17.0597C25.4494 17.0597 25.5535 17.0302 25.6368 16.9712C25.72 16.9122 25.7808 16.8263 25.8195 16.7136ZM27.176 17.031H26.8746V16.4329C26.8746 16.3063 26.8682 16.2245 26.8556 16.1874C26.8427 16.1503 26.822 16.1213 26.7932 16.1007C26.7645 16.0802 26.7299 16.0698 26.6895 16.0698C26.6378 16.0698 26.5913 16.0846 26.5502 16.114C26.509 16.1434 26.4809 16.1824 26.4656 16.231C26.4504 16.2795 26.4427 16.3692 26.4427 16.5002V17.031H26.1414V15.8616H26.421V16.0334C26.52 15.8996 26.6446 15.8328 26.7947 15.8328C26.8609 15.8328 26.9216 15.8452 26.9763 15.8698C27.0311 15.8944 27.0726 15.9259 27.1008 15.9641C27.1289 16.0023 27.1484 16.0457 27.1594 16.0943C27.1706 16.1428 27.176 16.2123 27.176 16.3028V17.031ZM28.0656 16.1081V15.8614H27.8604V15.4449L27.5591 15.6275V15.8614H27.4224V16.1081H27.5591V16.6193C27.5591 16.7289 27.5622 16.8018 27.5686 16.8379C27.5764 16.8886 27.5903 16.9289 27.6105 16.9587C27.6308 16.9885 27.6625 17.0129 27.7056 17.0316C27.7489 17.0503 27.7973 17.0598 27.8513 17.0598C27.9391 17.0598 28.0177 17.0443 28.0872 17.0134L28.0609 16.7737C28.009 16.7935 27.9696 16.8034 27.9422 16.8034C27.9226 16.8034 27.9061 16.7982 27.8924 16.788C27.8787 16.7776 27.87 16.7646 27.8662 16.7487C27.8623 16.7329 27.8604 16.677 27.8604 16.5813V16.1081H28.0656ZM28.235 16.7011L28.5364 16.653C28.5492 16.7128 28.5751 16.7581 28.6142 16.7891C28.6534 16.8202 28.7081 16.8356 28.7785 16.8356C28.8561 16.8356 28.9145 16.8208 28.9536 16.7913C28.9799 16.7705 28.9931 16.7429 28.9931 16.708C28.9931 16.6845 28.9859 16.6648 28.9716 16.6494C28.9564 16.6345 28.9228 16.6209 28.8705 16.6083C28.627 16.5528 28.4726 16.5023 28.4076 16.4566C28.3173 16.3934 28.2723 16.3053 28.2723 16.1928C28.2723 16.0911 28.3111 16.0057 28.3892 15.9366C28.4674 15.8674 28.5884 15.8328 28.7523 15.8328C28.9084 15.8328 29.0244 15.8587 29.1003 15.9105C29.1762 15.9624 29.2285 16.0389 29.2572 16.1403L28.9744 16.1948C28.9622 16.1494 28.9389 16.1144 28.9047 16.0902C28.8704 16.0659 28.8216 16.0538 28.7583 16.0538C28.6783 16.0538 28.621 16.0652 28.5865 16.0883C28.5633 16.1045 28.5519 16.1255 28.5519 16.1513C28.5519 16.1736 28.5618 16.1924 28.5819 16.208C28.609 16.2286 28.703 16.2578 28.8636 16.2956C29.0242 16.3333 29.1363 16.3794 29.2 16.4341C29.2629 16.4895 29.2945 16.5667 29.2945 16.6656C29.2945 16.7734 29.251 16.866 29.1642 16.9435C29.0772 17.0212 28.9487 17.0599 28.7785 17.0599C28.6241 17.0599 28.5018 17.0276 28.4117 16.9633C28.3216 16.8988 28.2627 16.8116 28.235 16.7011ZM30.9101 15.7939L31.129 16.3931H30.6985L30.9101 15.7939ZM31.3689 17.0308H31.7101L31.0777 15.416H30.7444L30.1378 17.0308H30.4732L30.6023 16.6656H31.2334L31.3689 17.0308ZM32.227 17.031H31.9257V15.8616H32.2053V16.0279C32.2531 15.9493 32.2959 15.8973 32.3342 15.8714C32.3723 15.8457 32.4155 15.8328 32.4642 15.8328C32.5326 15.8328 32.5985 15.8523 32.662 15.8914L32.5704 16.1622C32.5195 16.1285 32.4723 16.1115 32.4288 16.1115C32.3864 16.1115 32.3507 16.1235 32.3214 16.1473C32.2921 16.1713 32.269 16.2145 32.2523 16.2769C32.2354 16.3394 32.227 16.4703 32.227 16.6694V17.031ZM33.4653 16.1406C33.5082 16.1881 33.5308 16.2572 33.533 16.3482H33.0816C33.0808 16.2624 33.1019 16.1944 33.145 16.1445C33.188 16.0946 33.2423 16.0695 33.3084 16.0695C33.3699 16.0695 33.4222 16.0932 33.4653 16.1406ZM33.8156 16.7136L33.5173 16.6624C33.5007 16.7208 33.4763 16.7633 33.444 16.7895C33.4115 16.8159 33.3717 16.829 33.3241 16.829C33.2544 16.829 33.1962 16.8034 33.1493 16.7523C33.1027 16.701 33.0783 16.6295 33.0761 16.5374H33.8311C33.8354 16.2987 33.7886 16.1216 33.6908 16.0059C33.5929 15.8903 33.4594 15.8325 33.2901 15.8325C33.1395 15.8325 33.0148 15.8876 32.9164 15.9978C32.8177 16.108 32.7684 16.2605 32.7684 16.4549C32.7684 16.6179 32.8059 16.7527 32.881 16.8595C32.9759 16.9929 33.1225 17.0597 33.3205 17.0597C33.4454 17.0597 33.5496 17.0302 33.6329 16.9712C33.7161 16.9122 33.777 16.8263 33.8156 16.7136ZM34.7647 16.4701C34.7263 16.4834 34.6655 16.4992 34.5824 16.5177C34.4992 16.536 34.445 16.5542 34.4194 16.5718C34.3802 16.6006 34.3608 16.6371 34.3608 16.6813C34.3608 16.7249 34.3764 16.7624 34.4077 16.7942C34.4389 16.8259 34.4787 16.8418 34.5271 16.8418C34.5811 16.8418 34.6325 16.8233 34.6816 16.7865C34.7178 16.7584 34.7417 16.7242 34.753 16.6836C34.7607 16.657 34.7647 16.6065 34.7647 16.5319V16.4701ZM34.3608 16.217L34.0905 16.1657C34.1211 16.0524 34.1738 15.9687 34.2486 15.9142C34.3234 15.8598 34.4346 15.8325 34.582 15.8325C34.716 15.8325 34.8158 15.8489 34.8813 15.8815C34.9469 15.9144 34.9931 15.956 35.0197 16.0063C35.0465 16.0566 35.0599 16.1492 35.0599 16.2838L35.0568 16.6458C35.0568 16.7487 35.0616 16.8248 35.0711 16.8736C35.0808 16.9225 35.0988 16.9749 35.125 17.0308H34.8268C34.8189 17.0106 34.8094 16.9805 34.7979 16.9407C34.7948 16.9291 34.7922 16.9201 34.7901 16.9135L34.7874 16.9049C34.7361 16.9564 34.6814 16.9952 34.623 17.021C34.5646 17.0468 34.5024 17.0597 34.4362 17.0597C34.3195 17.0597 34.2274 17.0269 34.1602 16.9615C34.0931 16.8959 34.0594 16.8131 34.0594 16.713C34.0594 16.6469 34.0747 16.5878 34.1053 16.536C34.1359 16.4841 34.1789 16.4443 34.234 16.4167C34.2893 16.3892 34.369 16.3649 34.473 16.3443C34.6133 16.3172 34.7105 16.2918 34.7647 16.2683V16.237C34.7647 16.1767 34.7504 16.1337 34.7217 16.108C34.6931 16.0824 34.639 16.0696 34.5595 16.0696C34.5058 16.0696 34.4639 16.0805 34.4338 16.1023C34.4038 16.1241 34.3793 16.1624 34.3608 16.217ZM30.989 8.05554L32.0225 11.719H29.9861L30.989 8.05554ZM29.5118 13.3656H32.461L32.8818 14.8262H35.116L32.6233 6.375H29.296L26.8335 14.8262H29.1156L29.5118 13.3656Z" fill="#1E46D1"/>
<path fill-rule="evenodd" clip-rule="evenodd" d="M17.768 7.56383C18.6778 7.56383 19.4897 7.99599 20.0234 8.67288L20.4989 7.62166C19.7553 6.89689 18.7432 6.45007 17.6269 6.45007C15.8889 6.45007 14.4021 7.53246 13.7919 9.06464H12.8647L12.3173 10.2749H13.51C13.5011 10.3871 13.4953 10.4995 13.4953 10.6141C13.4953 10.7529 13.5023 10.8899 13.5156 11.0254H12.9161L12.3688 12.236H13.8203C14.4479 13.7294 15.9161 14.7779 17.6269 14.7779C18.489 14.7779 19.289 14.5115 19.9514 14.0565V12.5728C19.418 13.1991 18.6378 13.5948 17.768 13.5948C16.7512 13.5948 15.8568 13.0542 15.336 12.236H18.3757L18.923 11.0254H14.8888C14.868 10.8797 14.8569 10.7308 14.8569 10.5792C14.8569 10.4766 14.8621 10.3751 14.8716 10.2749H19.2623L19.8097 9.06464H15.2513C15.7554 8.16752 16.6935 7.56383 17.768 7.56383" fill="#F7AB26"/>
</svg>
