<svg width="40" height="24" viewBox="0 0 40 24" fill="none" xmlns="http://www.w3.org/2000/svg">
<rect x="0.5" y="0.5" width="39" height="23" rx="5.5" fill="white" stroke="#D5D8FF"/>
<path d="M18.0053 16.6616H15.5815L17.0975 7.36853H19.5211L18.0053 16.6616Z" fill="#1E46D1"/>
<path d="M26.7918 7.59572C26.3137 7.40768 25.5555 7.20007 24.6179 7.20007C22.2244 7.20007 20.5389 8.46544 20.5285 10.2745C20.5087 11.6093 21.7353 12.3506 22.6527 12.7957C23.5904 13.2505 23.9092 13.5473 23.9092 13.9527C23.8996 14.5752 23.1515 14.8622 22.4537 14.8622C21.486 14.8622 20.9675 14.7143 20.1796 14.3679L19.8604 14.2194L19.5212 16.3055C20.0897 16.5622 21.137 16.7901 22.2244 16.8001C24.7675 16.8001 26.4232 15.5543 26.4428 13.6264C26.4525 12.5685 25.8048 11.7579 24.4083 11.0955C23.5606 10.6703 23.0415 10.3836 23.0415 9.94854C23.0514 9.55303 23.4806 9.14793 24.4375 9.14793C25.2254 9.12809 25.8044 9.31586 26.2429 9.50376L26.4621 9.60244L26.7918 7.59572Z" fill="#1E46D1"/>
<path d="M30.0131 13.3694C30.2127 12.8355 30.9808 10.7693 30.9808 10.7693C30.9707 10.7891 31.18 10.2255 31.2996 9.87956L31.469 10.6803C31.469 10.6803 31.928 12.9048 32.0277 13.3694C31.6489 13.3694 30.4918 13.3694 30.0131 13.3694ZM33.0049 7.36853H31.1301C30.552 7.36853 30.1128 7.53646 29.8633 8.13958L26.2632 16.6615H28.8063C28.8063 16.6615 29.225 15.5145 29.315 15.2674C29.594 15.2674 32.068 15.2674 32.4269 15.2674C32.4965 15.5937 32.7161 16.6615 32.7161 16.6615H34.9602L33.0049 7.36853Z" fill="#1E46D1"/>
<path d="M13.5572 7.36853L11.1836 13.7055L10.9242 12.4203C10.4854 10.9373 9.1091 9.32611 7.57324 8.52497L9.7474 16.6517H12.3104L16.1201 7.36853H13.5572Z" fill="#1E46D1"/>
<path d="M8.9796 7.36853H5.08006L5.04016 7.5563C8.08205 8.32748 10.0966 10.1864 10.9243 12.4207L10.0766 8.1497C9.93706 7.55617 9.50816 7.38811 8.9796 7.36853Z" fill="#1E46D1"/>
</svg>
